#!OML:ASF I:\Actors\actors\Patient Classification 2\Patient 1\Session 1\actor1.ASF
:FULLY-SPECIFIED
:DEGREES
113
root -0.661258 18.6716 5.88315 2.17208 2.15714 -1.07273
lowerback -0.786068 1.01161 1.00039
upperback -1.07433 1.34035 -1.30526
thorax -0.605208 0.658523 -1.89362
lowerneck -10.7262 -3.70584 -4.78699
upperneck 23.5812 -5.80485 6.48363
head 9.52625 -2.44054 2.38709
rclavicle -1.90864e-014 1.19271e-014
rhumerus -85.6898 7.78003 -104.263
rradius 75.1703
rwrist 6.78147
rhand -4.92323 -45.7
rfingers 7.12502
rthumb 20.8672 -74.5978
lclavicle -1.90864e-014 1.19271e-014
lhumerus -42.5416 -12.8205 97.4561
lradius 49.9592
lwrist 3.40466
lhand -4.90206 -23.2987
lfingers 7.12502
lthumb 20.8875 5.59682
rfemur 0 0 0
rtibia 0
rfoot 0 0
rtoes 0
lfemur -4.54921 -9.11545 -13.2318
ltibia 21.2402
lfoot -24.1393 14.0435
ltoes -54.8799
114
root -0.669287 18.6722 5.88394 2.19683 2.41122 -1.12889
lowerback -0.773779 1.05306 0.886545
upperback -1.02414 1.39625 -1.32118
thorax -0.560706 0.687875 -1.84545
lowerneck -10.8438 -3.84793 -5.03548
upperneck 23.4415 -6.01373 6.77985
head 9.53102 -2.52711 2.50419
rclavicle 3.1526e-015 -1.78906e-014
rhumerus -85.2996 7.16235 -104.922
rradius 74.487
rwrist 3.5026
rhand -7.88647 -46.9583
rfingers 7.12502
rthumb 18.0181 -76.1437
lclavicle 3.1526e-015 -1.78906e-014
lhumerus -42.3253 -13.347 97.6891
lradius 49.8517
lwrist 3.47097
lhand -4.81131 -23.1084
lfingers 7.12502
lthumb 20.9747 5.7775
rfemur 0 0 0
rtibia 0
rfoot 0 0
rtoes 0
lfemur -4.66368 -9.21843 -13.1158
ltibia 21.2742
lfoot -24.0397 13.9562
ltoes -55.0356
115
root -0.677575 18.6729 5.88303 2.23801 2.66727 -1.0958
lowerback -0.703909 1.06607 0.698166
upperback -1.01999 1.414 -1.38871
thorax -0.597722 0.697523 -1.81036
lowerneck -10.9293 -3.97046 -5.30309
upperneck 23.2903 -6.20339 7.12623
head 9.52781 -2.60206 2.64451
rclavicle -7.71378e-015 1.59028e-015
rhumerus -84.9093 6.5814 -105.465
rradius 73.8786
rwrist 0.856122
rhand -9.85459 -47.9972
rfingers 7.12502
rthumb 16.1237 -77.3464
lclavicle -7.71378e-015 1.59028e-015
lhumerus -42.2299 -13.8426 97.8576
lradius 49.8102
lwrist 3.68212
lhand -4.86438 -23.143
lfingers 7.12502
lthumb 20.9237 5.74855
rfemur 0 0 0
rtibia 0
rfoot 0 0
rtoes 0
lfemur -4.786 -9.41626 -13.1071
ltibia 21.2917
lfoot -23.9628 13.9812
ltoes -55.1441
116
root -0.68438 18.674 5.88161 2.27588 2.93485 -1.05189
lowerback -0.615805 1.05649 0.503634
upperback -1.02297 1.40122 -1.44629
thorax -0.653789 0.691876 -1.76221
lowerneck -11.0136 -4.08448 -5.58585
upperneck 23.0954 -6.36644 7.44124
head 9.50778 -2.66992 2.77899
rclavicle 2.74478e-014 0
rhumerus -84.5458 6.13287 -105.986
rradius 73.2976
rwrist -1.50119
rhand -14.3919 -48.8963
rfingers 7.12502
rthumb 11.7512 -78.5467
lclavicle 2.74478e-014 0
lhumerus -42.1617 -14.2528 98.0176
lradius 49.7868
lwrist 3.83952
lhand -5.05941 -23.3641
lfingers 7.12502
lthumb 20.7363 5.548
rfemur 0 0 0
rtibia 0
rfoot 0 0
rtoes 0
lfemur -4.90152 -9.6315 -13.1138
ltibia 21.3036
lfoot -23.8924 14.0099
ltoes -55.2302
117
root -0.689674 18.675 5.88024 2.30213 3.19313 -1.04753
lowerback -0.586642 1.06122 0.329185
upperback -0.980007 1.40796 -1.4683
thorax -0.62951 0.696697 -1.68698
lowerneck -11.1432 -4.21526 -5.87043
upperneck 22.9362 -6.54645 7.73316
head 9.51076 -2.74649 2.90316
rclavicle -3.90736e-015 4.77083e-015
rhumerus -84.2147 5.89678 -106.482
rradius 72.7515
rwrist -3.53264
rhand -13.0502 -49.1742
rfingers 7.12502
rthumb 13.0448 -78.7462
lclavicle -3.90736e-015 4.77083e-015
lhumerus -41.9902 -14.7129 98.2251
lradius 49.7632
lwrist 3.88772
lhand -5.22315 -23.5773
lfingers 7.12502
lthumb 20.579 5.35189
rfemur 0 0 0
rtibia 0
rfoot 0 0
rtoes 0
lfemur -5.01479 -9.75334 -13.0729
ltibia 21.3306
lfoot -23.8048 13.9305
ltoes -55.3061
118
root -0.694415 18.6759 5.87904 2.33182 3.41906 -1.13268
lowerback -0.59868 1.09336 0.212584
upperback -0.923391 1.45172 -1.45106
thorax -0.566713 0.719936 -1.60284
lowerneck -11.3555 -4.36706 -6.15602
upperneck 22.8667 -6.75048 7.9964
head 9.56326 -2.83378 3.0141
rclavicle 9.54788e-015 -2.14687e-014
rhumerus -83.9983 5.85874 -106.825
rradius 72.4618
rwrist -4.85517
rhand -15.3726 -49.4754
rfingers 7.12502
rthumb 10.8054 -79.1775
lclavicle 9.54788e-015 -2.14687e-014
lhumerus -41.7562 -15.3147 98.4886
lradius 49.7586
lwrist 3.89801
lhand -5.17951 -23.6119
lfingers 7.12502
lthumb 20.6209 5.31276
rfemur 0 0 0
rtibia 0
rfoot 0 0
rtoes 0
lfemur -5.13997 -9.83207 -12.9274
ltibia 21.3779
lfoot -23.7468 13.7836
ltoes -55.2773
119
root -0.69785 18.677 5.87765 2.35888 3.63852 -1.24683
lowerback -0.543539 1.12783 0.139492
upperback -0.923798 1.4975 -1.43938
thorax -0.598848 0.743179 -1.55104
lowerneck -11.5413 -4.50092 -6.2795
upperneck 22.7932 -6.92581 8.10552
head 9.59637 -2.9105 3.0471
rclavicle -1.38155e-014 1.59028e-014
rhumerus -84.0551 6.02679 -107.169
rradius 72.5236
rwrist -5.49463
rhand -16.1476 -49.3512
rfingers 7.12502
rthumb 10.0578 -79.0909
lclavicle -1.38155e-014 1.59028e-014
lhumerus -41.6085 -15.9726 98.7631
lradius 49.8356
lwrist 3.89018
lhand -4.96719 -23.3912
lfingers 7.12502
lthumb 20.8249 5.51121
rfemur 0 0 0
rtibia 0
rfoot 0 0
rtoes 0
lfemur -5.27827 -9.86263 -12.7551
ltibia 21.4408
lfoot -23.64 13.6731
ltoes -55.3842
120
root -0.699349 18.6783 5.87474 2.38159 3.8615 -1.29657
lowerback -0.379281 1.15434 0.0509332
upperback -0.989801 1.53075 -1.4781
thorax -0.75882 0.759387 -1.54576
lowerneck -11.5731 -4.60884 -6.34114
upperneck 22.6189 -7.09081 8.26902
head 9.56391 -2.97683 3.09108
rclavicle 4.92613e-015 -1.43125e-014
rhumerus -84.3861 6.41665 -107.663
rradius 72.8161
rwrist -5.53911
rhand -16.5787 -49.1071
rfingers 7.12502
rthumb 9.64181 -78.8664
lclavicle 4.92613e-015 -1.43125e-014
lhumerus -41.649 -16.7526 99.0447
lradius 50.1209
lwrist 4.0386
lhand -4.70645 -22.9506
lfingers 7.12502
lthumb 21.0754 5.92413
rfemur 0 0 0
rtibia 0
rfoot 0 0
rtoes 0
lfemur -5.42299 -9.84936 -12.6632
ltibia 21.5112
lfoot -23.4803 13.5685
ltoes -55.5885
121
root -0.699225 18.6794 5.87051 2.40627 4.04002 -1.31103
lowerback -0.389876 1.17621 -0.071717
upperback -0.93383 1.56037 -1.51417
thorax -0.697033 0.775354 -1.51298
lowerneck -11.6778 -4.72541 -6.55578
upperneck 22.3901 -7.27225 8.617
head 9.54147 -3.04351 3.22148
rclavicle 8.71547e-015 7.95139e-015
rhumerus -84.697 7.12561 -108.026
rradius 73.365
rwrist -4.57381
rhand -15.3517 -49.2245
rfingers 7.12502
rthumb 10.8255 -78.9255
lclavicle 8.71547e-015 7.95139e-015
lhumerus -41.5785 -17.6795 99.2899
lradius 50.6021
lwrist 4.36239
lhand -4.61941 -22.8216
lfingers 7.12502
lthumb 21.159 6.04375
rfemur 0 0 0
rtibia 0
rfoot 0 0
rtoes 0
lfemur -5.54811 -9.8914 -12.6214
ltibia 21.5735
lfoot -23.3997 13.4926
ltoes -55.6236
122
root -0.696903 18.6806 5.86665 2.45067 4.16215 -1.30132
lowerback -0.394267 1.20327 -0.197019
upperback -0.911297 1.59646 -1.56659
thorax -0.672514 0.794212 -1.4961
lowerneck -11.8976 -4.83596 -6.63758
upperneck 22.3577 -7.44303 8.80129
head 9.59825 -3.10495 3.27378
rclavicle -2.21148e-015 -1.59028e-015
rhumerus -85.1914 7.96219 -108.164
rradius 74.1543
rwrist -2.57637
rhand -11.5606 -49.1955
rfingers 7.12502
rthumb 14.4804 -78.6703
lclavicle -2.21148e-015 -1.59028e-015
lhumerus -41.5845 -18.6278 99.5153
lradius 51.2195
lwrist 4.65373
lhand -4.71252 -23.1238
lfingers 7.12502
lthumb 21.0696 5.75152
rfemur 0 0 0
rtibia 0
rfoot 0 0
rtoes 0
lfemur -5.66617 -9.98059 -12.6246
ltibia 21.6196
lfoot -23.3665 13.5019
ltoes -55.6025
123
root -0.693421 18.6817 5.86202 2.47518 4.2266 -1.28763
lowerback -0.349858 1.26638 -0.255194
upperback -0.90304 1.67974 -1.66075
thorax -0.6858 0.835941 -1.56108
lowerneck -12.1304 -4.93582 -6.56253
upperneck 22.3431 -7.60316 8.86121
head 9.65181 -3.16034 3.25686
rclavicle 9.92681e-015 -1.03368e-014
rhumerus -85.8567 8.88653 -108.281
rradius 75.1165
rwrist -0.477839
rhand -11.0071 -48.9533
rfingers 7.12502
rthumb 15.0137 -78.3889
lclavicle 9.92681e-015 -1.03368e-014
lhumerus -41.699 -19.7771 99.7626
lradius 52.0474
lwrist 5.10689
lhand -4.53191 -23.0737
lfingers 7.12502
lthumb 21.2431 5.78218
rfemur 0 0 0
rtibia 0
rfoot 0 0
rtoes 0
lfemur -5.76062 -9.88267 -12.633
ltibia 21.6595
lfoot -23.2516 13.4255
ltoes -55.6637
124
root -0.691962 18.6827 5.85501 2.46901 4.24779 -1.3148
lowerback -0.284783 1.33974 -0.273784
upperback -0.875972 1.77676 -1.74607
thorax -0.690013 0.884392 -1.63951
lowerneck -12.2934 -5.02141 -6.63859
upperneck 22.2153 -7.74698 9.09601
head 9.66452 -3.20624 3.32873
rclavicle -8.33653e-015 2.8625e-014
rhumerus -86.6268 10.0498 -108.371
rradius 76.2938
rwrist 1.94948
rhand -8.62011 -48.3143
rfingers 7.12502
rthumb 17.3121 -77.5632
lclavicle -8.33653e-015 2.8625e-014
lhumerus -41.8314 -21.2627 100.056
lradius 53.0416
lwrist 5.96799
lhand -4.17356 -22.5447
lfingers 7.12502
lthumb 21.5873 6.2721
rfemur 0 0 0
rtibia 0
rfoot 0 0
rtoes 0
lfemur -5.82476 -9.70266 -12.5851
ltibia 21.6968
lfoot -23.129 13.2854
ltoes -55.7342
125
root -0.691262 18.6846 5.8458 2.48522 4.24438 -1.37672
lowerback -0.271802 1.38353 -0.302669
upperback -0.844821 1.83521 -1.79604
thorax -0.66314 0.913834 -1.67449
lowerneck -12.3623 -5.08864 -6.76467
upperneck 22.0355 -7.8713 9.40282
head 9.64495 -3.24347 3.4379
rclavicle 4.03781e-015 -2.54444e-014
rhumerus -87.4539 11.4432 -108.285
rradius 77.6976
rwrist 5.03136
rhand -4.63292 -47.2118
rfingers 7.12502
rthumb 21.1461 -76.0786
lclavicle 4.03781e-015 -2.54444e-014
lhumerus -41.8937 -22.8744 100.351
lradius 54.0494
lwrist 6.94435
lhand -4.02716 -22.0768
lfingers 7.12502
lthumb 21.7279 6.7238
rfemur 0 0 0
rtibia 0
rfoot 0 0
rtoes 0
lfemur -5.90783 -9.63925 -12.5009
ltibia 21.7334
lfoot -23.0823 13.2193
ltoes -55.7728
126
root -0.688925 18.6863 5.83692 2.50572 4.18403 -1.41719
lowerback -0.286175 1.43768 -0.349013
upperback -0.822063 1.90771 -1.84347
thorax -0.629759 0.950407 -1.69648
lowerneck -12.4077 -5.1646 -6.78652
upperneck 21.9171 -8.01023 9.59971
head 9.63516 -3.29006 3.48994
rclavicle 1.11568e-014 5.56597e-015
rhumerus -88.3166 12.9367 -108.161
rradius 79.4601
rwrist 6.72988
rhand -1.50667 -46.3818
rfingers 7.12502
rthumb 24.1465 -74.8821
lclavicle 1.11568e-014 5.56597e-015
lhumerus -42.0317 -24.4906 100.635
lradius 55.2496
lwrist 7.84035
lhand -3.94611 -21.788
lfingers 7.12502
lthumb 21.8057 7.00352
rfemur 0 0 0
rtibia 0
rfoot 0 0
rtoes 0
lfemur -5.96238 -9.62287 -12.4573
ltibia 21.7629
lfoot -23.1122 13.1889
ltoes -55.7153
127
root -0.68568 18.6865 5.8294 2.47088 4.08364 -1.43968
lowerback -0.256227 1.51371 -0.400667
upperback -0.80136 2.00869 -1.9007
thorax -0.622382 1.00114 -1.72688
lowerneck -12.5235 -5.23558 -6.82164
upperneck 21.94 -8.15023 9.80428
head 9.69002 -3.33259 3.54774
rclavicle 2.4202e-014 -2.38542e-014
rhumerus -89.1843 14.5602 -108.223
rradius 81.5723
rwrist 5.37032
rhand -0.731105 -46.622
rfingers 7.12502
rthumb 24.8899 -75.0216
lclavicle 2.4202e-014 -2.38542e-014
lhumerus -42.3563 -26.2121 100.909
lradius 56.802
lwrist 8.90777
lhand -3.79812 -21.4284
lfingers 7.12502
lthumb 21.9478 7.34656
rfemur 0 0 0
rtibia 0
rfoot 0 0
rtoes 0
lfemur -5.92133 -9.60351 -12.451
ltibia 21.7716
lfoot -23.2016 13.1551
ltoes -55.5437
